<?xml version="1.0" encoding="utf-8"?>
<!-- Generator: Adobe Illustrator 18.1.1, SVG Export Plug-In . SVG Version: 6.00 Build 0)  -->
<svg version="1.1" id="Layer_1" xmlns="http://www.w3.org/2000/svg" xmlns:xlink="http://www.w3.org/1999/xlink" x="0px" y="0px"
	 viewBox="0 0 141.7 141.7" enable-background="new 0 0 141.7 141.7" xml:space="preserve">
<g>
	<g>
		<path fill="#82BC44" d="M36.2,25.7c0,0-14.2,0-14.2,14.2v63.6c0,0,0,14.2,14.2,14.2h63.6c0,0,14.2,0,14.2-14.2V39.9
			c0,0,0-14.2-14.2-14.2H36.2z"/>
	</g>
</g>
<g>
	<path fill="#FFFFFF" d="M45.4,53.2c0,0.9-0.1,1.6-0.4,2.2c-0.8,1.7-2.2,2.6-4.4,2.6c-0.5,0-1.1-0.1-1.6-0.2l0,2.7
		c0,0.4-0.1,0.7-0.5,0.9c-0.3,0.2-0.7,0.3-1.1,0.3c-1,0-1.5-0.4-1.5-1.3l0-8.6c0-0.1,0-0.2-0.1-0.3c-0.1-0.1-0.2-0.1-0.3-0.2
		c-0.1,0-0.2-0.1-0.3-0.2C35,51,35,50.9,35,50.7c0-0.4,0.2-0.7,0.7-0.9s0.9-0.3,1.5-0.3c0.4,0,0.8,0.1,1.3,0.3
		c0.8-0.3,1.5-0.4,2.2-0.4c0.8,0,1.4,0.1,1.9,0.2c0.5,0.1,1,0.3,1.5,0.7C44.9,50.8,45.4,51.8,45.4,53.2z M42.4,53.3
		c0-1.4-0.6-2-1.9-2c-0.2,0-0.5,0-0.7,0.1c-0.2,0-0.4,0.1-0.6,0.3C39.1,51.8,39,52,39,52.2v3.3c0,0.4,0.4,0.5,1.1,0.5
		c0.8,0,1.4-0.2,1.8-0.7C42.2,54.8,42.4,54.2,42.4,53.3z"/>
	<path fill="#FFFFFF" d="M54.7,60.5c0,0.3-0.2,0.6-0.7,0.9s-0.9,0.4-1.4,0.4c-0.4,0-0.6-0.1-0.9-0.3c-0.2-0.2-0.4-0.5-0.4-0.8l0-0.3
		c-0.7,1-1.6,1.5-2.8,1.5c-0.8,0-1.4-0.2-1.9-0.7s-0.7-1.1-0.7-1.8c0-0.8,0.2-1.4,0.6-1.8c0.4-0.4,1-0.7,1.8-0.9l2.7-0.6v-0.6
		c0-0.4-0.1-0.6-0.3-0.8c-0.2-0.2-0.5-0.3-0.8-0.3c-0.4,0-0.6,0-0.7,0.2c-0.1,0.1-0.2,0.3-0.3,0.5c-0.1,0.3-0.2,0.5-0.4,0.6
		c-0.2,0.1-0.5,0.2-0.8,0.2c-0.7,0-1.1-0.3-1.1-1c0-0.4,0.1-0.6,0.2-0.9c0.1-0.2,0.4-0.4,0.9-0.6c0.7-0.4,1.5-0.6,2.4-0.6
		c1.3,0,2.2,0.3,2.8,0.8c0.6,0.6,0.9,1.4,0.9,2.6v3.2c0,0.2,0,0.3,0.1,0.3s0.2,0.1,0.4,0.2C54.5,60,54.7,60.2,54.7,60.5z M51.1,58.3
		v-0.6c0-0.1-0.1-0.2-0.2-0.2c-0.1,0-0.1,0-0.2,0l-1.4,0.3c-0.6,0.1-0.9,0.5-0.9,1V59c0,0.3,0.1,0.5,0.2,0.6
		c0.2,0.2,0.4,0.2,0.6,0.2c0.8,0,1.3-0.3,1.7-1C51.1,58.7,51.1,58.5,51.1,58.3z"/>
	<path fill="#FFFFFF" d="M62.8,54c0,0.5-0.1,0.9-0.3,1.1c-0.2,0.2-0.5,0.4-1,0.4c-0.5,0-0.8-0.1-1-0.3c-0.1-0.1-0.2-0.2-0.3-0.2
		c-0.2,0-0.4,0.2-0.5,0.5s-0.3,0.7-0.3,1c-0.1,0.3-0.1,0.6-0.1,0.9v3.1c0,0.4-0.1,0.7-0.4,0.9c-0.3,0.2-0.6,0.3-1,0.3
		c-1,0-1.4-0.4-1.4-1.2l0-5.3c0-0.3-0.1-0.4-0.4-0.5c-0.4-0.1-0.5-0.3-0.5-0.6c0-0.4,0.3-0.8,0.9-1c0.5-0.2,0.9-0.3,1.3-0.3
		c0.5,0,0.8,0.1,1,0.4c0.2,0.3,0.4,0.6,0.4,1v0.2h0.1c0.3-0.6,0.6-1,0.9-1.3c0.3-0.3,0.8-0.4,1.4-0.4c0.4,0,0.7,0.1,1,0.3
		C62.6,53.3,62.8,53.6,62.8,54z"/>
	<path fill="#FFFFFF" d="M72.7,60.7c0,0.3-0.2,0.6-0.6,0.8c-0.4,0.2-0.9,0.3-1.4,0.3c-0.6,0-1.1-0.3-1.4-0.8l-2.1-3.2l-0.4,0.4
		l0,2.4c0,0.4-0.1,0.7-0.4,0.9c-0.3,0.2-0.6,0.3-1,0.3c-1,0-1.4-0.4-1.4-1.2V50.5c0-0.4,0.1-0.7,0.4-0.9s0.6-0.3,1-0.3
		s0.8,0.1,1,0.3c0.3,0.2,0.4,0.5,0.4,0.9v5.6l2.9-2.8c0.4-0.4,0.7-0.6,1.2-0.6c0.2,0,0.5,0.1,0.7,0.2s0.3,0.4,0.3,0.6
		c0,0.2-0.1,0.4-0.3,0.6l-2.4,2.2l2.5,3.3c0.1,0.2,0.4,0.3,0.7,0.4C72.6,60.2,72.7,60.4,72.7,60.7z"/>
	<path fill="#FFFFFF" d="M77.5,60.7c0,0.4-0.2,0.6-0.7,0.8c-0.4,0.2-1,0.3-1.5,0.3c-0.4,0-0.8-0.1-1.1-0.4c-0.3-0.3-0.5-0.6-0.5-1.1
		v-9.8c0-0.4,0.1-0.7,0.4-0.9c0.3-0.2,0.6-0.3,1-0.3c0.9,0,1.4,0.4,1.4,1.2v9c0,0.1,0,0.2,0.1,0.3c0.1,0.1,0.2,0.1,0.3,0.2
		s0.2,0.1,0.3,0.2C77.5,60.3,77.5,60.5,77.5,60.7z"/>
	<path fill="#FFFFFF" d="M82.1,50.4c0,0.7-0.6,1.1-1.7,1.1c-1,0-1.6-0.3-1.6-1c0-0.4,0.2-0.7,0.5-0.9s0.8-0.3,1.2-0.3
		C81.6,49.4,82.1,49.7,82.1,50.4z M82.8,60.7c0,0.4-0.2,0.7-0.6,0.8c-0.4,0.2-0.9,0.2-1.4,0.2c-1.2,0-1.8-0.6-1.8-1.7v-6
		c0-0.4,0.1-0.7,0.4-0.9c0.3-0.2,0.6-0.3,1-0.3c1,0,1.4,0.4,1.4,1.2l0,5.5c0,0.1,0.1,0.3,0.2,0.3s0.2,0.1,0.3,0.2
		c0.1,0,0.2,0.1,0.3,0.2C82.7,60.4,82.8,60.6,82.8,60.7z"/>
	<path fill="#FFFFFF" d="M90.8,50.7c0,0.8-0.4,1.3-1.2,1.3c-0.6,0-1-0.2-1.2-0.7c-0.1-0.2-0.2-0.2-0.4-0.2c-0.4,0-0.7,0.4-0.7,1.1
		c0,0.3,0,0.6,0,1.1l0.5,0.1c0.2,0,0.4,0.1,0.5,0.1s0.2,0.1,0.3,0.2c0.1,0.1,0.1,0.3,0.1,0.5c0,0.4-0.1,0.6-0.3,0.7
		c-0.2,0.1-0.5,0.2-0.9,0.3l-0.2,0v5.5c0,0.4-0.1,0.7-0.4,0.9c-0.3,0.2-0.6,0.3-1,0.3c-1,0-1.4-0.4-1.4-1.2v-5.1
		c0-0.2-0.1-0.3-0.2-0.4c-0.1-0.1-0.2-0.1-0.4-0.2s-0.2-0.1-0.4-0.2s-0.2-0.3-0.2-0.5c0-0.1,0-0.3,0.1-0.4c0.1-0.1,0.2-0.2,0.3-0.3
		c0.1-0.1,0.2-0.2,0.3-0.2c0.1,0,0.2-0.1,0.4-0.2c0.1-1.2,0.5-2.1,1.1-2.8c0.6-0.7,1.5-1,2.6-1c0.7,0,1.3,0.1,1.7,0.3
		C90.5,49.7,90.8,50.1,90.8,50.7z"/>
	<path fill="#FFFFFF" d="M97.7,56.4c0,0.5-0.1,0.9-0.3,1.2c-0.2,0.3-0.6,0.4-1.2,0.4l-3.9,0c-0.1,0-0.2,0.1-0.2,0.3
		c0,0.6,0.2,1,0.5,1.3c0.4,0.3,0.8,0.5,1.5,0.5c0.7,0,1.3-0.2,1.9-0.7c0.2-0.2,0.4-0.2,0.6-0.2c0.2,0,0.4,0.1,0.6,0.3
		c0.2,0.2,0.2,0.4,0.2,0.6c0,0.2-0.1,0.5-0.3,0.7c-0.3,0.4-0.8,0.7-1.5,1c-0.6,0.3-1.3,0.4-2.1,0.4c-1.4,0-2.5-0.4-3.2-1.2
		c-0.7-0.8-1.1-1.9-1.1-3.2c0-1.3,0.4-2.5,1.2-3.4c0.8-1,1.8-1.4,3.1-1.4c1.4,0,2.4,0.4,3.1,1.1S97.7,55.4,97.7,56.4z M94.9,56.4
		c0.2,0,0.3-0.1,0.3-0.3c0-0.5-0.1-0.9-0.4-1.2c-0.2-0.3-0.6-0.5-1-0.5c-0.5,0-0.9,0.2-1.1,0.6c-0.3,0.4-0.5,0.8-0.5,1.4H94.9z"/>
</g>
<g>
	<g>
		<path fill="#FFFFFF" d="M59.4,82.6c-0.4,0-0.7-0.3-0.5-0.7l2.2-6c0.2-0.4,0.6-0.7,1.1-0.7h11c0.4,0,0.9,0.3,1.1,0.7l2.2,6
			c0.2,0.4-0.1,0.7-0.5,0.7H59.4z M93.9,83.3c0-0.4-0.4-0.8-0.8-0.8H84c-0.4,0-0.9-0.3-1.1-0.7l-2.2-6c-0.1-0.4,0.1-0.7,0.5-0.7h4.5
			c0.4,0,0.8-0.4,0.8-0.8v-4.6c0-0.4-0.4-0.8-0.8-0.8H50.1c-0.4,0-0.8,0.4-0.8,0.8v4.6c0,0.4,0.4,0.8,0.8,0.8H54
			c0.4,0,0.7,0.3,0.5,0.7l-2.2,6c-0.1,0.4-0.6,0.7-1.1,0.7h-8.5c-0.4,0-0.8,0.4-0.8,0.8V88c0,0.4,0.4,0.8,0.8,0.8H49
			c0.4,0,0.7,0.3,0.5,0.7l-3.4,9.4c-0.2,0.4,0.1,0.7,0.5,0.8l4.9,0c0.4,0,0.9-0.3,1.1-0.7l3.5-9.5c0.2-0.4,0.6-0.7,1.1-0.7h21
			c0.4,0,0.9,0.3,1.1,0.7l3.5,9.5c0.1,0.4,0.6,0.7,1.1,0.7l4.9,0c0.4,0,0.7-0.3,0.5-0.8l-3.4-9.4c-0.1-0.4,0.1-0.7,0.5-0.7h6.8
			c0.4,0,0.8-0.4,0.8-0.8V83.3z"/>
	</g>
</g>
</svg>
